<?xml version="1.0" encoding="UTF-8"?>
<svg id="Layer_2" data-name="Layer 2" xmlns="http://www.w3.org/2000/svg" viewBox="0 0 128.17 32.6">
  <defs>
    <style>
      .cls-1 {
        fill: #CC6443;
        stroke-width: 0px;
      }
    </style>
  </defs>
  <g id="Layer_5" data-name="Layer 5">
    <g>
      <path class="cls-1" d="m79.34,32.13c-.03-.09-.08-.29-.1-.69-.07-1.77-.11-3.28-.16-4.76-.05-1.82-.1-3.6-.2-5.78-.04-.99-.29-3.38-.65-4.42-.8-2.3-2.35-2.98-3.52-3.14-.35-.05-.69-.08-1.02-.08-1.78,0-3.13.73-3.9,2.11-.76,1.37-1.65,3.17-1.78,4.99-.14,2.02-.16,3.97-.18,5.86l-.02,1.66c-.03,1.78-1.4,3.57-3.13,4.08-.25.07-.41.09-.49.09-.07,0-.1,0-.1-.01,0,0-.06-.11-.07-.44l-.04-26.36c0-2.57,1.04-4.18,3.24-5.08.3-.12.48-.17.58-.18.02.09.04.26.04.55-.01,3.6,0,7.2,0,10.79,0,.35.02.71.05,1.17l.05.81.08,1.46,2.8-2.42c1.51-1.31,3.14-1.95,5-1.95,1.02,0,2.12.2,3.25.6,1.76.61,2.95,2.08,3.1,3.83.34,3.91.5,8.21.5,13.53,0,1.35-.87,2.46-2.73,3.48-.33.18-.52.24-.61.26Z"/>
      <path class="cls-1" d="m102.95,32.31c-.12-.18-.28-.56-.28-.78-.08-3.28-.11-6.62-.14-9.84l-.03-3.03c-.02-2.17-.82-3.86-2.37-5.01-.86-.64-1.78-.96-2.75-.96-.78,0-1.58.21-2.38.63-2.2,1.14-3.39,2.82-3.52,5l-.49,10.03c-.07,1.77-1.43,3.23-3.66,3.93-.11-.09-.24-.24-.29-.33l.36-17.85c.08-1.72,1.13-2.96,2.97-3.49.14-.04.57-.16.8-.16h0s.1.16.15.8c.02.24.06.47.12.8l.1.57.21,1.25,1.63-1.4c.38-.33.69-.59,1-.85,1.61-1.27,3.32-1.92,5.06-1.92,1.12,0,2.28.27,3.45.79,2.17.98,3.3,2.94,3.46,6,.19,3.8.15,7.69.12,11.44v.94c-.02,1.34-2.15,3.4-3.53,3.42Z"/>
      <path class="cls-1" d="m116.15,32.2c-2.11,0-4.79-.68-5.59-3.91-.54-2.17-.32-4.11.62-5.6.98-1.54,2.74-2.6,5.09-3.06,1.69-.33,3.44-.58,5.13-.82l1.34-.19c.65-.09,1.1-.33,1.36-.72.36-.53.26-1.17.16-1.6-.59-2.46-2.6-3.98-5.24-3.98-.36,0-.73.03-1.11.09-.44.07-.89.16-1.33.25-.6.12-1.16.24-1.73.3-.16.02-.33.03-.51.03-.58,0-.79-.12-.84-.16-.32-.24-.61-.71-.74-1.18.15-.15.46-.38.71-.49,2.14-.91,4.35-1.35,6.76-1.35.78,0,1.58.05,2.4.14,2.67.31,5.54,3.13,5.54,6.84l-.05,14.91c-2.37-.59-3.38-1.93-3.44-4.45-.02-.99-.08-1.97-.14-2.96-.03-.47-.06-.94-.08-1.4-.09-1.75-1.04-2.11-1.81-2.11-.24,0-.49.03-.78.11-.75.18-1.54.32-2.3.46-.83.15-1.7.3-2.54.52-1.92.49-3.09,1.91-3.11,3.78-.02,1.79,1.17,3.24,3.1,3.79.41.12.81.16,1.2.2.44.05.86.09,1.18.24.37.17.71.51,1.08.88.03.03.06.06.08.08l-.04.06c-.18.25-.45.64-.6.69-1.32.42-2.59.63-3.77.63Z"/>
      <path class="cls-1" d="m27.87,32.19c-2.09,0-4.78-.69-5.7-4-.54-1.94-.27-3.87.75-5.46,1.07-1.66,2.82-2.76,4.95-3.1l.79-.13c1.9-.3,3.8-.6,5.7-.87.68-.1,1.15-.34,1.42-.75.37-.56.25-1.23.13-1.69-.63-2.39-2.62-3.88-5.21-3.88-.39,0-.8.03-1.22.1-.48.08-.95.17-1.42.27-.6.12-1.19.24-1.8.32-.13.02-.25.03-.38.03-.76,0-1.23-.33-1.42-1.01-.03-.13.07-.5.16-.65,2.75-1.15,5.01-1.68,7.08-1.68,1.57,0,3.02.3,4.43.93,2.29,1.01,3.53,2.93,3.56,5.53.05,4.08.08,12.73.09,15.52-2.37-.61-3.38-1.93-3.44-4.4-.04-1.43-.14-2.88-.23-4.28l-.03-.38c-.12-1.67-1.24-1.84-1.71-1.84-.2,0-.41.03-.64.08-.73.17-1.46.3-2.2.43-.92.16-1.87.33-2.8.57-1.92.48-3.1,1.88-3.15,3.74-.05,1.77,1.15,3.27,3.05,3.83.39.11.77.16,1.15.2.41.04.8.09,1.09.22.42.2.82.55,1.24.92.03.02.05.05.08.07-.02.02-.03.04-.05.07-.19.27-.48.69-.65.74-1.29.38-2.52.58-3.64.58Z"/>
      <path class="cls-1" d="m53.83,32.6c-2.28,0-4.45-.76-6.45-2.25-3.27-2.44-4.51-5.92-3.9-10.95.67-5.56,5.29-9.59,11-9.59.17,0,.35,0,.52.01.36.07.8.14,1.24.22,1.03.18,2.06.36,3.09.5.32.04.41.12.41.12,0,0,.02.14-.18.63-.35.86-1.04,1.27-2.41,1.41-.42.04-.85.06-1.28.08-.84.03-1.7.07-2.55.29-3.86,1.02-6.45,4.97-6.04,9.2.41,4.18,3.09,6.82,7.35,7.24.32.03.63.04.96.04.52,0,1.04-.03,1.57-.07l.58-.04h.12c.52,0,1.17.15,1.66,1.35-.07.19-.31.53-.44.6-1.81.79-3.58,1.2-5.25,1.2Z"/>
      <path class="cls-1" d="m1.21,31.99s-.03-.13-.03-.4c.03-1.73.05-8.33.07-13.63.01-3.01.02-5.57.03-6.5.01-1.26,1.16-2.51,2.62-2.86.16-.04.26-.05.31-.05,0,0,0-.01,0-.01.01,0,.04.08.05.25.02.35.05.7.05,1.06,0,1.3,0,2.9-.01,4.64-.02,4.75-.04,10.67.04,14.26.03,1.41-1.55,2.76-2.65,3.15-.24.09-.38.1-.44.1-.02,0-.03,0-.04,0Z"/>
      <path class="cls-1" d="m20.83,32.52c-.9-.17-1.95-.43-2.46-.73-1.75-1.03-3.12-2.14-4.07-3.3-1.84-2.24-3.52-4.56-5.31-7.01-.59-.81-1.19-1.63-1.79-2.45,1.31-1.04,4.2-3.44,5.06-4.29,1.51-1.49,1.97-3.59,1.27-5.77-.72-2.23-2.68-3.07-7.22-3.07-.52,0-1.08.01-1.69.03h-.15c-1.16,0-2.2-.48-3-1.4C.6,3.54.09,2.13,0,.59c2.17,1.97,4.82,2.35,7.42,2.43,3.81.11,8.22,1.16,9.48,3.24,1.1,1.81,1.39,4.57.73,6.86-.41,1.42-1.37,3.35-3.63,4.48-.39.19-.77.41-1.1.59l-1.06.58.45.66c2.57,3.78,6.84,10.27,8.55,13.09Z"/>
    </g>
  </g>
</svg>