<svg width="600" height="400" viewBox="0 0 600 400" fill="none" xmlns="http://www.w3.org/2000/svg">
  <rect width="600" height="400" fill="#F9FAFB" stroke="#E5E7EB" stroke-width="2"/>
  
  <!-- Grid of inspiration squares -->
  <rect x="50" y="50" width="120" height="80" rx="8" fill="#FEF3C7"/>
  <rect x="190" y="50" width="120" height="80" rx="8" fill="#DBEAFE"/>
  <rect x="330" y="50" width="120" height="80" rx="8" fill="#F3E8FF"/>
  <rect x="470" y="50" width="80" height="80" rx="8" fill="#FEE2E2"/>
  
  <rect x="50" y="150" width="80" height="100" rx="8" fill="#D1FAE5"/>
  <rect x="150" y="150" width="140" height="100" rx="8" fill="#FCE7F3"/>
  <rect x="310" y="150" width="100" height="100" rx="8" fill="#FEF3C7"/>
  <rect x="430" y="150" width="120" height="100" rx="8" fill="#E0E7FF"/>
  
  <rect x="50" y="270" width="160" height="80" rx="8" fill="#F0FDF4"/>
  <rect x="230" y="270" width="100" height="80" rx="8" fill="#FFF7ED"/>
  <rect x="350" y="270" width="120" height="80" rx="8" fill="#F1F5F9"/>
  <rect x="490" y="270" width="60" height="80" rx="8" fill="#FAF5FF"/>
  
  <text x="300" y="380" text-anchor="middle" fill="#6B7280" font-family="system-ui, -apple-system" font-size="14" font-weight="500">Mood Board</text>
</svg>