<?xml version="1.0" encoding="UTF-8"?>
<svg id="Layer_2" data-name="Layer 2" xmlns="http://www.w3.org/2000/svg" viewBox="0 0 165.81 143.85">
  <defs>
    <style>
      .cls-1 {
        fill: #d56d47;
        stroke-width: 0px;
      }
    </style>
  </defs>
  <g id="Layer_8" data-name="Layer 8">
    <path class="cls-1" d="m159.03,25.82c-6.75-8.68-13.9-15.51-56.21-15.51,0,0-69.51.01-71.32,0S6.91,11.01.28,0c-2.45,17.9,11.47,18.19,23.91,18.19,23.91,0,36.58,11.8,38.97,28.77,2.91,20.68-15.78,35.4-31.56,32.95,10.83,14.9,20.3,30.9,31.23,44.55,4.79,5.98,11.3,10.91,17.86,14.87,4.63,2.79,13.51,4.43,13.51,4.43v-1.51c-4.71-8.79-33.9-43.11-45.38-60.38,5.74-1.72,10.79-2.51,18.41-8.61,6.46-5.16,14.34-17.46,10.28-34.42-3.49-14.55-14.14-23.13-24.61-26.33l51.63-.47c29.65-.25,43.27,15.74,42.32,35.16-.84,17.01-11.19,28.59-24.86,32.14-23.37,6.08-26.57,7.83-28.4,22.99-.86,7.08.75,41.47.75,41.47,6.11.1,8.46,0,15.93-.23-.04-4.64.56-39.69.31-58.01,12.27-3.16,26.06-2.24,38.66-10.34,21.04-13.52,19.37-37.12,9.8-49.42Z"/>
  </g>
</svg>